<svg xmlns="http://www.w3.org/2000/svg" width="26.88" height="26.88" viewBox="0 0 26.88 26.88">
  <path id="Path_8443" data-name="Path 8443" d="M11.431,12.5V2.083a2.1,2.1,0,0,1,4.2,0V12.5a2.1,2.1,0,0,1-4.2,0ZM21.845,3.054a1.582,1.582,0,0,0-2.209.259A1.556,1.556,0,0,0,19.9,5.507a10.145,10.145,0,0,1,3.926,8.031,10.293,10.293,0,0,1-20.586,0A10.142,10.142,0,0,1,7.159,5.51,1.555,1.555,0,0,0,7.42,3.316a1.583,1.583,0,0,0-2.21-.259A13.242,13.242,0,0,0,.089,13.538a13.44,13.44,0,0,0,26.88,0A13.247,13.247,0,0,0,21.845,3.054Z" transform="translate(-0.089)" fill="#fff"/>
</svg>
