<svg xmlns="http://www.w3.org/2000/svg" width="14.034" height="18.712" viewBox="0 0 14.034 18.712">
    <path id="prefix__icon_password" fill="#fff" d="M15.28 7.017h-.58V4.678a4.678 4.678 0 1 0-9.356 0v2.339h-.59A1.756 1.756 0 0 0 3 8.771v8.187a1.756 1.756 0 0 0 1.754 1.754H15.28a1.756 1.756 0 0 0 1.754-1.754V8.771a1.756 1.756 0 0 0-1.754-1.754zM6.9 4.678a3.119 3.119 0 0 1 6.237 0v2.339H6.9zm3.9 8.36v1.776a.78.78 0 1 1-1.559 0v-1.776a1.559 1.559 0 1 1 1.559 0z" opacity="0.4" transform="translate(-3)"/>
</svg>
